<svg width="173" height="25" viewBox="0 0 173 25" fill="none" xmlns="http://www.w3.org/2000/svg">
<path d="M2.752 24.292C2.06133 24.292 1.52933 24.1053 1.156 23.732C0.801333 23.3773 0.624 22.8453 0.624 22.136V7.156C0.624 6.46533 0.801333 5.94267 1.156 5.588C1.52933 5.21467 2.04267 5.028 2.696 5.028C3.38667 5.028 3.90933 5.21467 4.264 5.588C4.61867 5.94267 4.796 6.46533 4.796 7.156V9.06L4.488 7.968C4.768 7.072 5.328 6.35333 6.168 5.812C7.02667 5.252 8.00667 4.972 9.108 4.972C10.3027 4.972 11.348 5.26133 12.244 5.84C13.1587 6.41867 13.868 7.24 14.372 8.304C14.876 9.368 15.128 10.6373 15.128 12.112C15.128 13.5867 14.876 14.8653 14.372 15.948C13.868 17.0307 13.168 17.8613 12.272 18.44C11.376 19.0187 10.3213 19.308 9.108 19.308C8.02533 19.308 7.064 19.0467 6.224 18.524C5.384 17.9827 4.81467 17.2827 4.516 16.424H4.852V22.136C4.852 22.8453 4.66533 23.3773 4.292 23.732C3.93733 24.1053 3.424 24.292 2.752 24.292ZM7.848 16.144C8.44533 16.144 8.968 15.9947 9.416 15.696C9.88267 15.3973 10.2373 14.9587 10.48 14.38C10.7413 13.7827 10.872 13.0267 10.872 12.112C10.872 10.7493 10.592 9.75067 10.032 9.116C9.472 8.46267 8.744 8.136 7.848 8.136C7.25067 8.136 6.71867 8.276 6.252 8.556C5.804 8.836 5.44933 9.27467 5.188 9.872C4.92667 10.4507 4.796 11.1973 4.796 12.112C4.796 13.4747 5.076 14.492 5.636 15.164C6.196 15.8173 6.93333 16.144 7.848 16.144ZM19.8978 19.252C19.1885 19.252 18.6472 19.0653 18.2738 18.692C17.9005 18.3187 17.7138 17.7867 17.7138 17.096V7.156C17.7138 6.46533 17.8912 5.94267 18.2458 5.588C18.6192 5.21467 19.1325 5.028 19.7858 5.028C20.4578 5.028 20.9712 5.21467 21.3258 5.588C21.6805 5.94267 21.8578 6.46533 21.8578 7.156V8.612H21.5778C21.8018 7.492 22.2965 6.624 23.0618 6.008C23.8272 5.392 24.8165 5.04667 26.0298 4.972C26.4965 4.93467 26.8512 5.056 27.0938 5.336C27.3552 5.59733 27.4952 6.036 27.5138 6.652C27.5512 7.23067 27.4298 7.688 27.1498 8.024C26.8885 8.36 26.4405 8.56533 25.8058 8.64L25.1618 8.696C24.0978 8.78933 23.3045 9.09733 22.7818 9.62C22.2778 10.1427 22.0258 10.8987 22.0258 11.888V17.096C22.0258 17.7867 21.8392 18.3187 21.4658 18.692C21.1112 19.0653 20.5885 19.252 19.8978 19.252ZM35.6148 19.308C34.1401 19.308 32.8521 19.0187 31.7508 18.44C30.6681 17.8613 29.8281 17.0307 29.2308 15.948C28.6335 14.8653 28.3348 13.5867 28.3348 12.112C28.3348 11.0107 28.5028 10.0213 28.8388 9.144C29.1748 8.26667 29.6601 7.52 30.2948 6.904C30.9481 6.26933 31.7228 5.79333 32.6188 5.476C33.5148 5.14 34.5135 4.972 35.6148 4.972C37.0895 4.972 38.3681 5.26133 39.4508 5.84C40.5521 6.41867 41.4015 7.24 41.9988 8.304C42.6148 9.368 42.9228 10.6373 42.9228 12.112C42.9228 13.232 42.7455 14.2307 42.3908 15.108C42.0548 15.9853 41.5695 16.7413 40.9348 17.376C40.3001 18.0107 39.5255 18.496 38.6108 18.832C37.7148 19.1493 36.7161 19.308 35.6148 19.308ZM35.6148 16.144C36.2308 16.144 36.7628 15.9947 37.2108 15.696C37.6588 15.3973 38.0135 14.9587 38.2748 14.38C38.5361 13.7827 38.6668 13.0267 38.6668 12.112C38.6668 10.7493 38.3868 9.75067 37.8268 9.116C37.2668 8.46267 36.5295 8.136 35.6148 8.136C35.0175 8.136 34.4855 8.276 34.0188 8.556C33.5708 8.836 33.2161 9.27467 32.9548 9.872C32.7121 10.4507 32.5908 11.1973 32.5908 12.112C32.5908 13.4747 32.8708 14.492 33.4308 15.164C33.9908 15.8173 34.7188 16.144 35.6148 16.144ZM50.7591 19.308C49.9378 19.308 49.0884 19.2333 48.2111 19.084C47.3524 18.9347 46.5684 18.6827 45.8591 18.328C45.4858 18.1413 45.2151 17.908 45.0471 17.628C44.8978 17.3293 44.8324 17.0307 44.8511 16.732C44.8698 16.4333 44.9631 16.1627 45.1311 15.92C45.3178 15.6773 45.5511 15.5187 45.8311 15.444C46.1298 15.3507 46.4564 15.3787 46.8111 15.528C47.5764 15.8453 48.2764 16.0693 48.9111 16.2C49.5458 16.3307 50.1711 16.396 50.7871 16.396C51.5898 16.396 52.1684 16.2747 52.5231 16.032C52.8964 15.7707 53.0831 15.4347 53.0831 15.024C53.0831 14.6507 52.9618 14.3707 52.7191 14.184C52.4764 13.9973 52.1218 13.8667 51.6551 13.792L48.7151 13.26C47.5578 13.0547 46.6618 12.6347 46.0271 12C45.4111 11.3467 45.1031 10.516 45.1031 9.508C45.1031 8.57467 45.3644 7.772 45.8871 7.1C46.4098 6.40933 47.1284 5.88667 48.0431 5.532C48.9764 5.15867 50.0311 4.972 51.2071 4.972C52.0471 4.972 52.8218 5.04667 53.5311 5.196C54.2404 5.34533 54.9218 5.588 55.5751 5.924C55.9111 6.092 56.1444 6.316 56.2751 6.596C56.4244 6.876 56.4711 7.16533 56.4151 7.464C56.3778 7.76267 56.2658 8.03333 56.0791 8.276C55.8924 8.51867 55.6498 8.67733 55.3511 8.752C55.0711 8.82667 54.7444 8.78933 54.3711 8.64C53.7738 8.36 53.2231 8.164 52.7191 8.052C52.2151 7.92133 51.7298 7.856 51.2631 7.856C50.4231 7.856 49.8164 7.996 49.4431 8.276C49.0698 8.53733 48.8831 8.87333 48.8831 9.284C48.8831 9.60133 48.9858 9.872 49.1911 10.096C49.4151 10.3013 49.7511 10.4413 50.1991 10.516L53.1391 11.048C54.3524 11.2533 55.2764 11.664 55.9111 12.28C56.5458 12.8773 56.8631 13.6987 56.8631 14.744C56.8631 16.1627 56.3031 17.2827 55.1831 18.104C54.0818 18.9067 52.6071 19.308 50.7591 19.308ZM65.8876 19.308C64.5996 19.308 63.517 19.0933 62.6396 18.664C61.781 18.2347 61.137 17.6093 60.7076 16.788C60.297 15.9667 60.0916 14.9307 60.0916 13.68V8.416H58.9156C58.393 8.416 57.9823 8.276 57.6836 7.996C57.4036 7.716 57.2636 7.33333 57.2636 6.848C57.2636 6.32533 57.4036 5.93333 57.6836 5.672C57.9823 5.392 58.393 5.252 58.9156 5.252H60.0916V3.124C60.0916 2.41467 60.2783 1.88267 60.6516 1.528C61.025 1.15467 61.5476 0.967999 62.2196 0.967999C62.9103 0.967999 63.433 1.15467 63.7876 1.528C64.1423 1.88267 64.3196 2.41467 64.3196 3.124V5.252H66.9796C67.5023 5.252 67.9036 5.392 68.1836 5.672C68.4636 5.93333 68.6036 6.32533 68.6036 6.848C68.6036 7.33333 68.4636 7.716 68.1836 7.996C67.9036 8.276 67.5023 8.416 66.9796 8.416H64.3196V13.512C64.3196 14.296 64.497 14.884 64.8516 15.276C65.225 15.668 65.813 15.864 66.6156 15.864C66.8956 15.864 67.157 15.836 67.3996 15.78C67.6423 15.724 67.8663 15.6867 68.0716 15.668C68.333 15.6493 68.5476 15.7333 68.7156 15.92C68.8836 16.088 68.9676 16.4707 68.9676 17.068C68.9676 17.516 68.893 17.908 68.7436 18.244C68.5943 18.58 68.333 18.8227 67.9596 18.972C67.717 19.0653 67.381 19.14 66.9516 19.196C66.541 19.2707 66.1863 19.308 65.8876 19.308ZM76.9312 19.308C75.4566 19.308 74.1686 19.0187 73.0672 18.44C71.9846 17.8613 71.1446 17.0307 70.5472 15.948C69.9499 14.8653 69.6512 13.5867 69.6512 12.112C69.6512 11.0107 69.8192 10.0213 70.1552 9.144C70.4912 8.26667 70.9766 7.52 71.6112 6.904C72.2646 6.26933 73.0392 5.79333 73.9352 5.476C74.8312 5.14 75.8299 4.972 76.9312 4.972C78.4059 4.972 79.6846 5.26133 80.7672 5.84C81.8686 6.41867 82.7179 7.24 83.3152 8.304C83.9312 9.368 84.2392 10.6373 84.2392 12.112C84.2392 13.232 84.0619 14.2307 83.7072 15.108C83.3712 15.9853 82.8859 16.7413 82.2512 17.376C81.6166 18.0107 80.8419 18.496 79.9272 18.832C79.0312 19.1493 78.0326 19.308 76.9312 19.308ZM76.9312 16.144C77.5472 16.144 78.0792 15.9947 78.5272 15.696C78.9752 15.3973 79.3299 14.9587 79.5912 14.38C79.8526 13.7827 79.9832 13.0267 79.9832 12.112C79.9832 10.7493 79.7032 9.75067 79.1432 9.116C78.5832 8.46267 77.8459 8.136 76.9312 8.136C76.3339 8.136 75.8019 8.276 75.3352 8.556C74.8872 8.836 74.5326 9.27467 74.2712 9.872C74.0286 10.4507 73.9072 11.1973 73.9072 12.112C73.9072 13.4747 74.1872 14.492 74.7472 15.164C75.3072 15.8173 76.0352 16.144 76.9312 16.144ZM93.9515 19.308C92.3275 19.308 90.9275 19.0187 89.7515 18.44C88.5942 17.8427 87.6982 17.012 87.0635 15.948C86.4475 14.8653 86.1395 13.596 86.1395 12.14C86.1395 10.7213 86.4382 9.48 87.0355 8.416C87.6328 7.33333 88.4635 6.49333 89.5275 5.896C90.6102 5.28 91.8328 4.972 93.1955 4.972C94.1848 4.972 95.0808 5.14 95.8835 5.476C96.6862 5.79333 97.3768 6.26 97.9555 6.876C98.5342 7.47333 98.9728 8.21067 99.2715 9.088C99.5702 9.94667 99.7195 10.908 99.7195 11.972C99.7195 12.3267 99.6075 12.5973 99.3835 12.784C99.1595 12.952 98.8328 13.036 98.4035 13.036H89.6115V10.852H96.6675L96.2195 11.244C96.2195 10.4787 96.1075 9.844 95.8835 9.34C95.6595 8.81733 95.3328 8.42533 94.9035 8.164C94.4928 7.90267 93.9795 7.772 93.3635 7.772C92.6728 7.772 92.0848 7.93067 91.5995 8.248C91.1142 8.56533 90.7408 9.02267 90.4795 9.62C90.2182 10.2173 90.0875 10.936 90.0875 11.776V12C90.0875 13.4187 90.4142 14.464 91.0675 15.136C91.7395 15.808 92.7288 16.144 94.0355 16.144C94.4835 16.144 94.9968 16.088 95.5755 15.976C96.1542 15.864 96.6955 15.6867 97.1995 15.444C97.6288 15.2387 98.0115 15.1733 98.3475 15.248C98.6835 15.304 98.9448 15.4533 99.1315 15.696C99.3182 15.9387 99.4208 16.2187 99.4395 16.536C99.4768 16.8533 99.4115 17.1707 99.2435 17.488C99.0755 17.7867 98.7955 18.0387 98.4035 18.244C97.7688 18.5987 97.0502 18.86 96.2475 19.028C95.4635 19.2147 94.6982 19.308 93.9515 19.308ZM104.363 19.252C103.672 19.252 103.14 19.0653 102.767 18.692C102.412 18.3187 102.235 17.7867 102.235 17.096V7.156C102.235 6.46533 102.412 5.94267 102.767 5.588C103.14 5.21467 103.653 5.028 104.307 5.028C104.979 5.028 105.492 5.21467 105.847 5.588C106.201 5.94267 106.379 6.46533 106.379 7.156V8.948L106.071 7.828C106.444 6.96933 107.023 6.27867 107.807 5.756C108.591 5.23333 109.515 4.972 110.579 4.972C111.643 4.972 112.529 5.224 113.239 5.728C113.948 6.232 114.452 7.00667 114.751 8.052H114.359C114.769 7.1 115.395 6.35333 116.235 5.812C117.093 5.252 118.073 4.972 119.175 4.972C120.239 4.972 121.107 5.18667 121.779 5.616C122.469 6.02667 122.983 6.66133 123.319 7.52C123.655 8.36 123.823 9.43333 123.823 10.74V17.096C123.823 17.7867 123.636 18.3187 123.263 18.692C122.908 19.0653 122.395 19.252 121.723 19.252C121.032 19.252 120.5 19.0653 120.127 18.692C119.772 18.3187 119.595 17.7867 119.595 17.096V10.88C119.595 9.96533 119.445 9.30267 119.147 8.892C118.867 8.46267 118.381 8.248 117.691 8.248C116.888 8.248 116.263 8.528 115.815 9.088C115.367 9.648 115.143 10.4413 115.143 11.468V17.096C115.143 17.7867 114.956 18.3187 114.583 18.692C114.228 19.0653 113.715 19.252 113.043 19.252C112.371 19.252 111.848 19.0653 111.475 18.692C111.101 18.3187 110.915 17.7867 110.915 17.096V10.88C110.915 9.96533 110.765 9.30267 110.467 8.892C110.187 8.46267 109.701 8.248 109.011 8.248C108.208 8.248 107.583 8.528 107.135 9.088C106.687 9.648 106.463 10.4413 106.463 11.468V17.096C106.463 18.5333 105.763 19.252 104.363 19.252ZM134.202 19.308C132.578 19.308 131.178 19.0187 130.002 18.44C128.844 17.8427 127.948 17.012 127.314 15.948C126.698 14.8653 126.39 13.596 126.39 12.14C126.39 10.7213 126.688 9.48 127.285 8.416C127.883 7.33333 128.714 6.49333 129.778 5.896C130.86 5.28 132.083 4.972 133.446 4.972C134.435 4.972 135.331 5.14 136.134 5.476C136.936 5.79333 137.627 6.26 138.206 6.876C138.784 7.47333 139.223 8.21067 139.522 9.088C139.82 9.94667 139.97 10.908 139.97 11.972C139.97 12.3267 139.858 12.5973 139.634 12.784C139.41 12.952 139.083 13.036 138.654 13.036H129.862V10.852H136.918L136.47 11.244C136.47 10.4787 136.358 9.844 136.134 9.34C135.91 8.81733 135.583 8.42533 135.154 8.164C134.743 7.90267 134.23 7.772 133.614 7.772C132.923 7.772 132.335 7.93067 131.85 8.248C131.364 8.56533 130.991 9.02267 130.73 9.62C130.468 10.2173 130.338 10.936 130.338 11.776V12C130.338 13.4187 130.664 14.464 131.318 15.136C131.99 15.808 132.979 16.144 134.286 16.144C134.734 16.144 135.247 16.088 135.826 15.976C136.404 15.864 136.946 15.6867 137.45 15.444C137.879 15.2387 138.262 15.1733 138.598 15.248C138.934 15.304 139.195 15.4533 139.382 15.696C139.568 15.9387 139.671 16.2187 139.69 16.536C139.727 16.8533 139.662 17.1707 139.494 17.488C139.326 17.7867 139.046 18.0387 138.654 18.244C138.019 18.5987 137.3 18.86 136.498 19.028C135.714 19.2147 134.948 19.308 134.202 19.308ZM144.557 19.252C143.866 19.252 143.334 19.0653 142.961 18.692C142.606 18.3187 142.429 17.7867 142.429 17.096V7.156C142.429 6.46533 142.606 5.94267 142.961 5.588C143.334 5.21467 143.847 5.028 144.501 5.028C145.173 5.028 145.686 5.21467 146.041 5.588C146.395 5.94267 146.573 6.46533 146.573 7.156V8.752L146.265 7.828C146.694 6.91333 147.329 6.21333 148.169 5.728C149.027 5.224 149.998 4.972 151.081 4.972C152.182 4.972 153.087 5.18667 153.797 5.616C154.506 6.02667 155.038 6.66133 155.393 7.52C155.747 8.36 155.925 9.43333 155.925 10.74V17.096C155.925 17.7867 155.738 18.3187 155.365 18.692C155.01 19.0653 154.487 19.252 153.797 19.252C153.125 19.252 152.602 19.0653 152.229 18.692C151.874 18.3187 151.697 17.7867 151.697 17.096V10.936C151.697 9.984 151.519 9.30267 151.165 8.892C150.829 8.46267 150.306 8.248 149.597 8.248C148.701 8.248 147.982 8.528 147.441 9.088C146.918 9.648 146.657 10.3947 146.657 11.328V17.096C146.657 18.5333 145.957 19.252 144.557 19.252ZM164.149 19.308C162.992 19.308 162.03 19.0933 161.265 18.664C160.5 18.2347 159.93 17.5907 159.557 16.732C159.202 15.8547 159.025 14.772 159.025 13.484V7.156C159.025 6.44667 159.202 5.91467 159.557 5.56C159.93 5.20533 160.453 5.028 161.125 5.028C161.797 5.028 162.32 5.20533 162.693 5.56C163.066 5.91467 163.253 6.44667 163.253 7.156V13.596C163.253 14.4173 163.421 15.0333 163.757 15.444C164.093 15.836 164.625 16.032 165.353 16.032C166.156 16.032 166.809 15.752 167.313 15.192C167.836 14.6133 168.097 13.8573 168.097 12.924V7.156C168.097 6.44667 168.274 5.91467 168.629 5.56C169.002 5.20533 169.525 5.028 170.197 5.028C170.888 5.028 171.41 5.20533 171.765 5.56C172.138 5.91467 172.325 6.44667 172.325 7.156V17.096C172.325 18.5333 171.644 19.252 170.281 19.252C169.609 19.252 169.096 19.0653 168.741 18.692C168.386 18.3187 168.209 17.7867 168.209 17.096V15.22L168.629 16.312C168.218 17.264 167.63 18.0013 166.865 18.524C166.1 19.0467 165.194 19.308 164.149 19.308Z" fill="#232323"/>
</svg>
