<svg width="22" height="22" viewBox="0 0 22 22" fill="none" xmlns="http://www.w3.org/2000/svg">
<path d="M12.7299 2.51001L14.4899 6.03001C14.7299 6.52002 15.3699 6.99001 15.9099 7.08001L19.0999 7.61001C21.1399 7.95001 21.6199 9.43001 20.1499 10.89L17.6699 13.37C17.2499 13.79 17.0199 14.6 17.1499 15.18L17.8599 18.25C18.4199 20.68 17.1299 21.62 14.9799 20.35L11.9899 18.58C11.4499 18.26 10.5599 18.26 10.0099 18.58L7.01991 20.35C4.87991 21.62 3.57991 20.67 4.13991 18.25L4.84991 15.18C4.97991 14.6 4.74991 13.79 4.32991 13.37L1.84991 10.89C0.389909 9.43001 0.859909 7.95001 2.89991 7.61001L6.08991 7.08001C6.61991 6.99001 7.25991 6.52002 7.49991 6.03001L9.25991 2.51001C10.2199 0.600015 11.7799 0.600015 12.7299 2.51001Z" stroke="#F1B823" stroke-width="1.7" stroke-linecap="round" stroke-linejoin="round"/>
</svg>
