<svg width="132" height="44" viewBox="0 0 132 44" fill="none" xmlns="http://www.w3.org/2000/svg">
<path d="M0 14.2935C0 13.7545 0.00962992 13.2539 0.0288898 12.7919C0.0481495 12.3107 0.0577794 11.8198 0.0577794 11.3193C0.0770392 10.8188 0.096299 10.2894 0.115559 9.73111C0.134819 9.1536 0.144449 8.50871 0.144449 7.79644C0.144449 7.18042 0.134819 6.61253 0.115559 6.09277C0.115559 5.57301 0.105929 5.0725 0.0866691 4.59124C0.0674093 4.09072 0.0481495 3.59984 0.0288898 3.11858C0.00962992 2.63731 0 2.12718 0 1.58816C0 1.24166 0.105929 0.972149 0.317787 0.779644C0.548905 0.567889 0.828172 0.471637 1.15559 0.490887C1.38671 0.510138 1.58893 0.529388 1.76227 0.548638C1.95487 0.567889 2.18599 0.577515 2.45563 0.577515C3.11046 0.577515 3.67862 0.548639 4.16012 0.490887C4.66087 0.433136 5.11348 0.365759 5.51793 0.288757C5.94165 0.211756 6.34611 0.144379 6.7313 0.0866277C7.1165 0.0288759 7.52095 0 7.94467 0C9.10026 0 10.1499 0.192505 11.0936 0.577515C12.0566 0.943273 12.8848 1.47266 13.5782 2.16568C14.2715 2.85869 14.8012 3.68646 15.1671 4.64899C15.5523 5.59226 15.7449 6.64141 15.7449 7.79644C15.7449 8.50871 15.7545 9.1536 15.7738 9.73111C15.793 10.2894 15.8027 10.8188 15.8027 11.3193C15.8219 11.8198 15.8412 12.3107 15.8605 12.7919C15.8797 13.2539 15.8893 13.7545 15.8893 14.2935C15.8893 14.4667 15.8123 14.6207 15.6582 14.7555C15.5041 14.8902 15.3115 14.9961 15.0804 15.0731C14.8493 15.1501 14.6086 15.2079 14.3582 15.2464C14.1078 15.2849 13.8959 15.3041 13.7226 15.3041C13.5493 15.3041 13.3374 15.2849 13.087 15.2464C12.8367 15.2079 12.5959 15.1501 12.3648 15.0731C12.1337 14.9961 11.9411 14.8902 11.787 14.7555C11.6329 14.6207 11.5559 14.4667 11.5559 14.2935C11.5559 13.7545 11.5655 13.2539 11.5848 12.7919C11.604 12.3107 11.6137 11.8198 11.6137 11.3193C11.6329 10.8188 11.6522 10.2894 11.6714 9.73111C11.6907 9.1536 11.7003 8.50871 11.7003 7.79644C11.7003 6.19865 11.4018 5.08212 10.8048 4.44686C10.2077 3.79234 9.25434 3.46508 7.94467 3.46508C6.635 3.46508 5.68164 3.79234 5.08459 4.44686C4.48753 5.08212 4.18901 6.19865 4.18901 7.79644C4.18901 8.50871 4.19864 9.1536 4.2179 9.73111C4.23716 10.2894 4.24679 10.8188 4.24679 11.3193C4.26605 11.8198 4.28531 12.3107 4.30457 12.7919C4.32383 13.2539 4.33346 13.7545 4.33346 14.2935C4.33346 14.4667 4.25642 14.6207 4.10234 14.7555C3.94826 14.8902 3.75566 14.9961 3.52454 15.0731C3.29343 15.1501 3.05268 15.2079 2.8023 15.2464C2.55192 15.2849 2.34007 15.3041 2.16673 15.3041C1.99339 15.3041 1.78153 15.2849 1.53115 15.2464C1.28078 15.2079 1.04003 15.1501 0.808912 15.0731C0.577794 14.9961 0.385196 14.8902 0.231118 14.7555C0.0770392 14.6207 0 14.4667 0 14.2935Z" fill="#2C7429"/>
<path d="M19.3459 7.79644C19.3459 7.18042 19.3363 6.61253 19.3171 6.09277C19.2978 5.57301 19.2689 5.0725 19.2304 4.59124C19.2111 4.09072 19.1822 3.59984 19.1437 3.11858C19.1245 2.63731 19.1052 2.12718 19.0859 1.58816C19.0667 1.24166 19.163 0.962523 19.3748 0.750768C19.5867 0.539013 19.866 0.452387 20.2126 0.490887C20.4438 0.510138 20.646 0.529388 20.8193 0.548638C21.0119 0.567889 21.243 0.577515 21.5127 0.577515C22.1675 0.577515 22.7357 0.548639 23.2172 0.490887C23.7179 0.433136 24.1705 0.365759 24.575 0.288757C24.9987 0.211756 25.4032 0.144379 25.7883 0.0866277C26.1735 0.0288759 26.578 0 27.0017 0C28.1766 0 29.2359 0.192505 30.1796 0.577515C31.1426 0.943273 31.9611 1.47266 32.6352 2.16568C33.3286 2.83944 33.8582 3.65759 34.2241 4.62011C34.6093 5.56338 34.8019 6.62216 34.8019 7.79644C34.8019 8.97072 34.6093 10.0391 34.2241 11.0016C33.8582 11.9449 33.3286 12.7631 32.6352 13.4561C31.9611 14.1298 31.1426 14.6496 30.1796 15.0154C29.2359 15.4004 28.1766 15.5929 27.0017 15.5929C26.7706 15.5929 26.501 15.5736 26.1928 15.5351C25.8846 15.4966 25.5669 15.4485 25.2394 15.3907C24.9313 15.3522 24.6231 15.3041 24.315 15.2464C24.0068 15.2079 23.7468 15.1694 23.535 15.1309C23.1498 15.0731 22.9764 15.2271 23.0149 15.5929C23.0727 16.2666 23.1016 17.5179 23.1016 19.3467C23.1016 19.52 23.0246 19.674 22.8705 19.8087C22.7357 19.9435 22.5623 20.0494 22.3505 20.1264C22.1579 20.2034 21.9364 20.2611 21.686 20.2996C21.4549 20.3381 21.2527 20.3574 21.0793 20.3574C20.906 20.3574 20.6941 20.3381 20.4438 20.2996C20.2126 20.2611 19.9911 20.2034 19.7793 20.1264C19.5867 20.0494 19.4134 19.9435 19.2593 19.8087C19.1245 19.674 19.0571 19.52 19.0571 19.3467C19.0571 18.6344 19.0667 17.7586 19.0859 16.719C19.1245 15.6988 19.163 14.6496 19.2015 13.5716C19.24 12.4936 19.2689 11.4444 19.2882 10.4241C19.3267 9.3846 19.3459 8.50871 19.3459 7.79644ZM27.0017 12.1278C28.3114 12.1278 29.3129 11.8102 30.0062 11.1749C30.6996 10.5204 31.0463 9.39423 31.0463 7.79644C31.0463 6.19865 30.6996 5.08212 30.0062 4.44686C29.3129 3.79234 28.3114 3.46508 27.0017 3.46508C25.6921 3.46508 24.6905 3.79234 23.9972 4.44686C23.3038 5.08212 22.9572 6.19865 22.9572 7.79644C22.9572 9.39423 23.3038 10.5204 23.9972 11.1749C24.6905 11.8102 25.6921 12.1278 27.0017 12.1278Z" fill="#2C7429"/>
<path d="M37.1131 7.79644C37.1131 6.64141 37.2961 5.59226 37.662 4.64899C38.0472 3.68646 38.5865 2.85869 39.2798 2.16568C39.9732 1.47266 40.7917 0.943273 41.7355 0.577515C42.6985 0.192505 43.7577 0 44.9133 0C46.0689 0 47.1186 0.192505 48.0623 0.577515C49.0253 0.943273 49.8535 1.47266 50.5468 2.16568C51.2402 2.85869 51.7698 3.68646 52.1358 4.64899C52.521 5.59226 52.7136 6.64141 52.7136 7.79644C52.7136 8.95147 52.521 10.0102 52.1358 10.9728C51.7698 11.916 51.2402 12.7342 50.5468 13.4272C49.8535 14.1202 49.0253 14.6496 48.0623 15.0154C47.1186 15.4004 46.0689 15.5929 44.9133 15.5929C43.7577 15.5929 42.6985 15.4004 41.7355 15.0154C40.7917 14.6496 39.9732 14.1202 39.2798 13.4272C38.5865 12.7342 38.0472 11.916 37.662 10.9728C37.2961 10.0102 37.1131 8.95147 37.1131 7.79644ZM40.8688 7.79644C40.8688 9.39423 41.2155 10.5204 41.9088 11.1749C42.6022 11.8102 43.6037 12.1278 44.9133 12.1278C46.223 12.1278 47.2245 11.8102 47.9179 11.1749C48.6112 10.5204 48.9579 9.39423 48.9579 7.79644C48.9579 6.19865 48.6112 5.08212 47.9179 4.44686C47.2245 3.79234 46.223 3.46508 44.9133 3.46508C43.6037 3.46508 42.6022 3.79234 41.9088 4.44686C41.2155 5.08212 40.8688 6.19865 40.8688 7.79644Z" fill="#2C7429"/>
<path d="M55.0134 7.79644C55.0134 6.64141 55.1964 5.59226 55.5623 4.64899C55.9475 3.68646 56.4868 2.85869 57.1802 2.16568C57.8735 1.47266 58.6921 0.943273 59.6358 0.577515C60.5988 0.192505 61.6581 0 62.8137 0C63.8922 0 64.8456 0.115503 65.6737 0.346509C66.5019 0.558264 67.1953 0.837396 67.7538 1.1839C68.3123 1.53041 68.7361 1.9058 69.025 2.31006C69.3139 2.71432 69.4583 3.09932 69.4583 3.46508C69.4583 3.71534 69.4005 3.95597 69.285 4.18698C69.1694 4.41798 69.025 4.62011 68.8516 4.79337C68.6783 4.94737 68.4761 5.0725 68.2449 5.16875C68.0331 5.265 67.8116 5.31313 67.5805 5.31313C67.176 5.31313 66.839 5.17837 66.5693 4.90887C66.396 4.73561 66.2034 4.56236 65.9915 4.38911C65.7797 4.21585 65.5293 4.06185 65.2404 3.9271C64.9515 3.79234 64.6048 3.68646 64.2004 3.60946C63.8152 3.51321 63.3529 3.46508 62.8137 3.46508C61.504 3.46508 60.5025 3.79234 59.8091 4.44686C59.1158 5.08212 58.7691 6.19865 58.7691 7.79644C58.7691 9.39423 59.1158 10.5204 59.8091 11.1749C60.5025 11.8102 61.504 12.1278 62.8137 12.1278C63.3529 12.1278 63.8152 12.0893 64.2004 12.0123C64.6048 11.916 64.9515 11.8005 65.2404 11.6658C65.5293 11.531 65.7797 11.377 65.9915 11.2038C66.2034 11.0305 66.396 10.8573 66.5693 10.684C66.839 10.4145 67.176 10.2797 67.5805 10.2797C67.8116 10.2797 68.0331 10.3279 68.2449 10.4241C68.4761 10.5204 68.6783 10.6551 68.8516 10.8284C69.025 10.9824 69.1694 11.1749 69.285 11.4059C69.4005 11.6177 69.4583 11.8583 69.4583 12.1278C69.4583 12.4936 69.3139 12.8786 69.025 13.2828C68.7361 13.6871 68.3123 14.0625 67.7538 14.409C67.1953 14.7555 66.5019 15.0346 65.6737 15.2464C64.8456 15.4774 63.8922 15.5929 62.8137 15.5929C61.6581 15.5929 60.5988 15.4004 59.6358 15.0154C58.6921 14.6496 57.8735 14.1202 57.1802 13.4272C56.4868 12.7342 55.9475 11.916 55.5623 10.9728C55.1964 10.0102 55.0134 8.95147 55.0134 7.79644Z" fill="#2C7429"/>
<path d="M72.0527 1.58816C72.0527 1.24166 72.1587 0.972149 72.3705 0.779644C72.6016 0.567889 72.8809 0.471637 73.2083 0.490887C73.4394 0.510138 73.6417 0.529388 73.815 0.548638C74.0076 0.567889 74.2387 0.577515 74.5084 0.577515C75.1632 0.577515 75.6928 0.548639 76.0973 0.490887C76.521 0.433136 76.8966 0.365759 77.224 0.288757C77.5514 0.211756 77.8692 0.144379 78.1774 0.0866277C78.4855 0.0288759 78.8514 0 79.2752 0C79.93 0 80.5078 0.0673769 81.0085 0.202131C81.5093 0.336883 81.9426 0.500512 82.3086 0.693017C82.6938 0.885522 83.0212 1.08765 83.2908 1.29941C83.5605 1.51116 83.782 1.69404 83.9553 1.84805C84.2442 2.0983 84.4946 2.0983 84.7064 1.84805C84.8605 1.67479 85.0627 1.48229 85.3131 1.27053C85.5827 1.05878 85.9102 0.856646 86.2954 0.664142C86.6805 0.471637 87.1235 0.317633 87.6243 0.202131C88.1443 0.0673769 88.7317 0 89.3866 0C90.5421 0 91.5629 0.192505 92.4489 0.577515C93.3348 0.943273 94.0667 1.47266 94.6445 2.16568C95.2415 2.85869 95.6941 3.68646 96.0023 4.64899C96.3105 5.59226 96.4645 6.64141 96.4645 7.79644C96.4645 8.50871 96.4742 9.1536 96.4934 9.73111C96.5127 10.2894 96.5223 10.8188 96.5223 11.3193C96.5416 11.8198 96.5608 12.3107 96.5801 12.7919C96.5994 13.2539 96.609 13.7545 96.609 14.2935C96.609 14.4667 96.5319 14.6207 96.3779 14.7555C96.2238 14.8902 96.0312 14.9961 95.8001 15.0731C95.569 15.1501 95.3282 15.2079 95.0778 15.2464C94.8275 15.2849 94.6156 15.3041 94.4423 15.3041C94.2689 15.3041 94.0571 15.2849 93.8067 15.2464C93.5563 15.2079 93.3156 15.1501 93.0844 15.0731C92.8533 14.9961 92.6607 14.8902 92.5066 14.7555C92.3526 14.6207 92.2755 14.4667 92.2755 14.2935C92.2755 13.7545 92.2852 13.2539 92.3044 12.7919C92.3237 12.3107 92.3333 11.8198 92.3333 11.3193C92.3526 10.8188 92.3718 10.2894 92.3911 9.73111C92.4103 9.1536 92.42 8.50871 92.42 7.79644C92.42 7.00717 92.3815 6.34303 92.3044 5.80402C92.2466 5.24575 92.1022 4.79337 91.8711 4.44686C91.6592 4.10035 91.3511 3.85009 90.9466 3.69609C90.5614 3.54209 90.0414 3.46508 89.3866 3.46508C88.7317 3.46508 88.2021 3.54209 87.7976 3.69609C87.4124 3.85009 87.1139 4.10035 86.902 4.44686C86.6902 4.79337 86.5457 5.24575 86.4687 5.80402C86.3917 6.34303 86.3531 7.00717 86.3531 7.79644C86.3531 8.50871 86.3628 9.1536 86.382 9.73111C86.4013 10.2894 86.4109 10.8188 86.4109 11.3193C86.4302 11.8198 86.4494 12.3107 86.4687 12.7919C86.488 13.2539 86.4976 13.7545 86.4976 14.2935C86.4976 14.4667 86.4205 14.6207 86.2665 14.7555C86.1124 14.8902 85.9198 14.9961 85.6887 15.0731C85.4576 15.1501 85.2168 15.2079 84.9664 15.2464C84.7161 15.2849 84.5042 15.3041 84.3309 15.3041C84.1575 15.3041 83.9457 15.2849 83.6953 15.2464C83.4449 15.2079 83.2042 15.1501 82.973 15.0731C82.7419 14.9961 82.5493 14.8902 82.3952 14.7555C82.2412 14.6207 82.1641 14.4667 82.1641 14.2935C82.1641 13.7545 82.1738 13.2539 82.193 12.7919C82.2123 12.3107 82.2219 11.8198 82.2219 11.3193C82.2412 10.8188 82.2604 10.2894 82.2797 9.73111C82.299 9.1536 82.3086 8.50871 82.3086 7.79644C82.3086 7.00717 82.2701 6.34303 82.193 5.80402C82.1352 5.24575 81.9908 4.79337 81.7597 4.44686C81.5478 4.10035 81.2397 3.85009 80.8352 3.69609C80.45 3.54209 79.93 3.46508 79.2752 3.46508C78.6203 3.46508 78.0907 3.54209 77.6862 3.69609C77.301 3.85009 77.0025 4.10035 76.7906 4.44686C76.5788 4.79337 76.4343 5.24575 76.3573 5.80402C76.2803 6.34303 76.2417 7.00717 76.2417 7.79644C76.2417 8.50871 76.2514 9.1536 76.2706 9.73111C76.2899 10.2894 76.2995 10.8188 76.2995 11.3193C76.3188 11.8198 76.338 12.3107 76.3573 12.7919C76.3766 13.2539 76.3862 13.7545 76.3862 14.2935C76.3862 14.4667 76.3092 14.6207 76.1551 14.7555C76.001 14.8902 75.8084 14.9961 75.5773 15.0731C75.3462 15.1501 75.1054 15.2079 74.855 15.2464C74.6047 15.2849 74.3928 15.3041 74.2195 15.3041C74.0461 15.3041 73.8343 15.2849 73.5839 15.2464C73.3335 15.2079 73.0928 15.1501 72.8616 15.0731C72.6305 14.9961 72.4379 14.8902 72.2838 14.7555C72.1298 14.6207 72.0527 14.4667 72.0527 14.2935C72.0527 13.7545 72.0624 13.2539 72.0816 12.7919C72.1009 12.3107 72.1105 11.8198 72.1105 11.3193C72.1298 10.8188 72.149 10.2894 72.1683 9.73111C72.1875 9.1536 72.1972 8.50871 72.1972 7.79644C72.1972 7.18042 72.1875 6.61253 72.1683 6.09277C72.1683 5.57301 72.1587 5.0725 72.1394 4.59124C72.1201 4.09072 72.1009 3.59984 72.0816 3.11858C72.0624 2.63731 72.0527 2.12718 72.0527 1.58816Z" fill="#2C7429"/>
<path d="M99.2215 7.79644C99.2215 6.64141 99.4044 5.59226 99.7704 4.64899C100.156 3.68646 100.695 2.85869 101.388 2.16568C102.082 1.47266 102.9 0.943273 103.844 0.577515C104.807 0.192505 105.866 0 107.022 0C108.177 0 109.227 0.192505 110.171 0.577515C111.134 0.943273 111.962 1.47266 112.655 2.16568C113.349 2.85869 113.878 3.68646 114.244 4.64899C114.629 5.59226 114.822 6.64141 114.822 7.79644C114.822 8.95147 114.629 10.0102 114.244 10.9728C113.878 11.916 113.349 12.7342 112.655 13.4272C111.962 14.1202 111.134 14.6496 110.171 15.0154C109.227 15.4004 108.177 15.5929 107.022 15.5929C105.866 15.5929 104.807 15.4004 103.844 15.0154C102.9 14.6496 102.082 14.1202 101.388 13.4272C100.695 12.7342 100.156 11.916 99.7704 10.9728C99.4044 10.0102 99.2215 8.95147 99.2215 7.79644ZM102.977 7.79644C102.977 9.39423 103.324 10.5204 104.017 11.1749C104.711 11.8102 105.712 12.1278 107.022 12.1278C108.331 12.1278 109.333 11.8102 110.026 11.1749C110.72 10.5204 111.066 9.39423 111.066 7.79644C111.066 6.19865 110.72 5.08212 110.026 4.44686C109.333 3.79234 108.331 3.46508 107.022 3.46508C105.712 3.46508 104.711 3.79234 104.017 4.44686C103.324 5.08212 102.977 6.19865 102.977 7.79644Z" fill="#2C7429"/>
<path d="M124.922 0C125.904 0 126.819 0.134753 127.667 0.40426C128.533 0.654516 129.284 1.00102 129.92 1.44378C130.556 1.88655 131.056 2.41593 131.422 3.03195C131.807 3.64796 132 4.32173 132 5.05325C132 5.95802 131.807 6.71841 131.422 7.33443C131.056 7.93119 130.556 8.42208 129.92 8.80709C129.284 9.17285 128.533 9.43273 127.667 9.58673C126.819 9.74074 125.904 9.81774 124.922 9.81774C124.209 9.81774 123.555 9.76961 122.958 9.67336C122.38 9.57711 121.917 9.48085 121.571 9.3846C121.378 9.3461 121.234 9.37498 121.137 9.47123C121.06 9.54823 121.041 9.66373 121.08 9.81774C121.137 10.0487 121.243 10.299 121.397 10.5685C121.552 10.838 121.773 11.0883 122.062 11.3193C122.351 11.5503 122.726 11.7428 123.189 11.8968C123.651 12.0508 124.229 12.1278 124.922 12.1278C125.461 12.1278 125.924 12.0893 126.309 12.0123C126.713 11.916 127.06 11.8005 127.349 11.6658C127.638 11.531 127.888 11.377 128.1 11.2038C128.312 11.0305 128.504 10.8573 128.678 10.684C128.947 10.4145 129.284 10.2797 129.689 10.2797C129.92 10.2797 130.141 10.3279 130.353 10.4241C130.584 10.5204 130.787 10.6551 130.96 10.8284C131.133 10.9824 131.278 11.1749 131.393 11.4059C131.509 11.6177 131.567 11.8583 131.567 12.1278C131.567 12.4936 131.422 12.8786 131.133 13.2828C130.844 13.6871 130.421 14.0625 129.862 14.409C129.304 14.7555 128.61 15.0346 127.782 15.2464C126.954 15.4774 126.001 15.5929 124.922 15.5929C123.728 15.5929 122.649 15.4004 121.686 15.0154C120.723 14.6496 119.905 14.1202 119.231 13.4272C118.557 12.7342 118.037 11.916 117.671 10.9728C117.305 10.0102 117.122 8.95147 117.122 7.79644C117.122 6.64141 117.305 5.59226 117.671 4.64899C118.037 3.68646 118.557 2.85869 119.231 2.16568C119.905 1.47266 120.723 0.943273 121.686 0.577515C122.649 0.192505 123.728 0 124.922 0ZM121.571 6.20828C121.937 6.28528 122.428 6.38153 123.044 6.49703C123.661 6.59328 124.286 6.64141 124.922 6.64141C125.866 6.64141 126.655 6.50666 127.291 6.23715C127.927 5.94839 128.244 5.55376 128.244 5.05325C128.244 4.55273 127.927 4.16773 127.291 3.89822C126.655 3.60946 125.866 3.46508 124.922 3.46508C124.267 3.46508 123.709 3.53246 123.246 3.66721C122.784 3.80197 122.399 3.97522 122.091 4.18698C121.802 4.37948 121.58 4.59124 121.426 4.82224C121.272 5.05325 121.166 5.27463 121.109 5.48638C121.07 5.64039 121.089 5.79439 121.166 5.94839C121.263 6.08315 121.397 6.16977 121.571 6.20828Z" fill="#2C7429"/>
<path d="M0 40.3425C0 39.8035 0.00962992 39.303 0.0288898 38.8409C0.0674094 38.3597 0.105929 37.8688 0.144449 37.3683C0.182968 36.8678 0.211858 36.3384 0.231118 35.7801C0.269637 35.2026 0.288897 34.5577 0.288897 33.8454C0.288897 33.2294 0.279267 32.6615 0.260007 32.1418C0.240748 31.622 0.211858 31.1215 0.173338 30.6402C0.154079 30.1397 0.125189 29.6488 0.0866691 29.1676C0.0674093 28.6863 0.0481495 28.1762 0.0288898 27.6372C0.00962992 27.2907 0.105929 27.0115 0.317787 26.7998C0.529645 26.588 0.808912 26.5014 1.15559 26.5399C1.38671 26.5591 1.58893 26.5784 1.76227 26.5976C1.95487 26.6169 2.18599 26.6265 2.45563 26.6265H4.33346C4.71865 26.6265 5.00755 26.7902 5.20015 27.1174L9.8225 35.5202C10.0151 35.8475 10.2077 35.8475 10.4003 35.5202L15.0226 27.1174C15.2152 26.7902 15.5041 26.6265 15.8893 26.6265H17.7672C18.0368 26.6265 18.2583 26.6169 18.4316 26.5976C18.6242 26.5784 18.8361 26.5591 19.0672 26.5399C19.4139 26.5014 19.6931 26.588 19.905 26.7998C20.1169 27.0115 20.2132 27.2907 20.1939 27.6372C20.1746 28.1762 20.1458 28.6863 20.1072 29.1676C20.088 29.6488 20.0591 30.1397 20.0206 30.6402C20.0013 31.1215 19.982 31.622 19.9628 32.1418C19.9435 32.6615 19.9339 33.2294 19.9339 33.8454C19.9339 34.5577 19.9435 35.2026 19.9628 35.7801C20.0013 36.3384 20.0398 36.8678 20.0783 37.3683C20.1169 37.8688 20.1458 38.3597 20.165 38.8409C20.2035 39.303 20.2228 39.8035 20.2228 40.3425C20.2228 40.5157 20.1458 40.6697 19.9917 40.8045C19.8376 40.9392 19.645 41.0451 19.4139 41.1221C19.1828 41.1991 18.942 41.2569 18.6916 41.2954C18.4413 41.3339 18.2294 41.3531 18.0561 41.3531C17.8827 41.3531 17.6709 41.3339 17.4205 41.2954C17.1701 41.2569 16.9294 41.1991 16.6982 41.1221C16.4671 41.0451 16.2745 40.9392 16.1205 40.8045C15.9664 40.6697 15.8893 40.5157 15.8893 40.3425C15.8893 39.4377 15.899 38.4367 15.9182 37.3394C15.9375 36.2229 15.9664 35.0582 16.0049 33.8454C16.0434 33.3642 15.9856 33.1236 15.8316 33.1236C15.716 33.1236 15.5619 33.3064 15.3693 33.6722L11.8159 40.5446C11.6233 40.8911 11.344 41.0644 10.9781 41.0644H9.24471C8.87877 41.0644 8.5995 40.8911 8.4069 40.5446L4.85347 33.6722C4.68013 33.3064 4.52605 33.1236 4.39123 33.1236C4.25642 33.1236 4.18901 33.3642 4.18901 33.8454C4.20827 35.0582 4.23716 36.2229 4.27568 37.3394C4.3142 38.4367 4.33346 39.4377 4.33346 40.3425C4.33346 40.5157 4.25642 40.6697 4.10234 40.8045C3.94826 40.9392 3.75566 41.0451 3.52454 41.1221C3.29343 41.1991 3.05268 41.2569 2.8023 41.2954C2.55192 41.3339 2.34007 41.3531 2.16673 41.3531C1.99339 41.3531 1.78153 41.3339 1.53115 41.2954C1.28078 41.2569 1.04003 41.1991 0.808912 41.1221C0.577794 41.0451 0.385196 40.9392 0.231118 40.8045C0.0770392 40.6697 0 40.5157 0 40.3425Z" fill="#2C7429"/>
<path d="M30.9063 26.049C31.8886 26.049 32.8034 26.1838 33.6509 26.4533C34.5176 26.7035 35.2687 27.05 35.9043 27.4928C36.5398 27.9356 37.0406 28.4649 37.4065 29.081C37.7917 29.697 37.9843 30.3707 37.9843 31.1023C37.9843 32.007 37.7917 32.7674 37.4065 33.3834C37.0406 33.9802 36.5398 34.4711 35.9043 34.8561C35.2687 35.2219 34.5176 35.4817 33.6509 35.6357C32.8034 35.7897 31.8886 35.8667 30.9063 35.8667C30.1937 35.8667 29.5389 35.8186 28.9418 35.7224C28.364 35.6261 27.9018 35.5299 27.5551 35.4336C27.3625 35.3951 27.2181 35.424 27.1218 35.5202C27.0447 35.5972 27.0255 35.7127 27.064 35.8667C27.1218 36.0978 27.2277 36.348 27.3818 36.6175C27.5359 36.887 27.7574 37.1373 28.0463 37.3683C28.3352 37.5993 28.7107 37.7918 29.173 37.9458C29.6352 38.0998 30.213 38.1768 30.9063 38.1768C31.4456 38.1768 31.9078 38.1383 32.293 38.0613C32.6975 37.965 33.0442 37.8495 33.3331 37.7148C33.622 37.58 33.8723 37.426 34.0842 37.2528C34.2961 37.0795 34.4887 36.9063 34.662 36.733C34.9316 36.4635 35.2687 36.3288 35.6731 36.3288C35.9043 36.3288 36.1257 36.3769 36.3376 36.4731C36.5687 36.5694 36.7709 36.7041 36.9443 36.8774C37.1176 37.0314 37.2621 37.2239 37.3776 37.4549C37.4932 37.6667 37.551 37.9073 37.551 38.1768C37.551 38.5426 37.4065 38.9276 37.1176 39.3318C36.8287 39.7361 36.405 40.1115 35.8465 40.458C35.2879 40.8045 34.5946 41.0836 33.7664 41.2954C32.9382 41.5264 31.9849 41.6419 30.9063 41.6419C29.7122 41.6419 28.6337 41.4494 27.6707 41.0644C26.7077 40.6986 25.8892 40.1692 25.2151 39.4762C24.541 38.7832 24.021 37.965 23.655 37.0218C23.2891 36.0593 23.1061 35.0005 23.1061 33.8454C23.1061 32.6904 23.2891 31.6413 23.655 30.698C24.021 29.7355 24.541 28.9077 25.2151 28.2147C25.8892 27.5217 26.7077 26.9923 27.6707 26.6265C28.6337 26.2415 29.7122 26.049 30.9063 26.049ZM27.5551 32.2573C27.9211 32.3343 28.4122 32.4305 29.0285 32.546C29.6448 32.6423 30.2708 32.6904 30.9063 32.6904C31.8501 32.6904 32.6397 32.5557 33.2753 32.2862C33.9109 31.9974 34.2287 31.6028 34.2287 31.1023C34.2287 30.6017 33.9109 30.2167 33.2753 29.9472C32.6397 29.6585 31.8501 29.5141 30.9063 29.5141C30.2515 29.5141 29.693 29.5815 29.2307 29.7162C28.7685 29.851 28.3833 30.0242 28.0751 30.236C27.7862 30.4285 27.5648 30.6402 27.4107 30.8713C27.2566 31.1023 27.1507 31.3236 27.0929 31.5354C27.0544 31.6894 27.0736 31.8434 27.1507 31.9974C27.247 32.1322 27.3818 32.2188 27.5551 32.2573Z" fill="#2C7429"/>
<path d="M40.8789 27.3484C40.8789 27.1752 40.956 27.0212 41.11 26.8864C41.2641 26.7517 41.4567 26.6458 41.6878 26.5688C41.919 26.4918 42.1597 26.434 42.4101 26.3955C42.6605 26.357 42.8723 26.3378 43.0457 26.3378C43.219 26.3378 43.4309 26.357 43.6812 26.3955C43.9316 26.434 44.1724 26.4918 44.4035 26.5688C44.6346 26.6458 44.8272 26.7517 44.9813 26.8864C45.1353 27.0212 45.2124 27.1752 45.2124 27.3484C45.2124 27.7334 45.2028 28.1281 45.1835 28.5323C45.1835 28.9173 45.1739 29.3023 45.1546 29.6873C45.1546 30.0531 45.145 30.3996 45.1257 30.7269C45.1065 31.0349 45.0968 31.3044 45.0968 31.5354C45.0968 31.9204 45.2798 32.0937 45.6457 32.0552C45.8961 32.0359 46.2139 32.0167 46.5991 31.9974C47.0035 31.9782 47.4562 31.9685 47.9569 31.9685C48.4577 31.9685 48.9006 31.9782 49.2858 31.9974C49.6903 32.0167 50.0177 32.0359 50.2681 32.0552C50.634 32.0937 50.817 31.9204 50.817 31.5354C50.817 31.3044 50.8074 31.0349 50.7881 30.7269C50.7881 30.3996 50.7785 30.0531 50.7592 29.6873C50.7592 29.3023 50.7496 28.9173 50.7303 28.5323C50.7303 28.1281 50.7303 27.7334 50.7303 27.3484C50.7303 27.1752 50.8074 27.0212 50.9614 26.8864C51.1155 26.7517 51.2985 26.6458 51.5103 26.5688C51.7415 26.4918 51.9822 26.434 52.2326 26.3955C52.483 26.357 52.6948 26.3378 52.8682 26.3378C53.0415 26.3378 53.2533 26.357 53.5037 26.3955C53.7541 26.434 53.9949 26.4918 54.226 26.5688C54.4571 26.6458 54.6497 26.7517 54.8038 26.8864C54.9578 27.0212 55.0349 27.1752 55.0349 27.3484C55.0349 27.8874 55.0253 28.3976 55.006 28.8788C54.9867 29.3408 54.9675 29.8221 54.9482 30.3226C54.9482 30.8231 54.9386 31.3525 54.9193 31.9108C54.9001 32.469 54.8904 33.1139 54.8904 33.8454C54.8904 34.5577 54.9001 35.2026 54.9193 35.7801C54.9386 36.3384 54.9482 36.8678 54.9482 37.3683C54.9675 37.8688 54.9867 38.3597 55.006 38.8409C55.0253 39.303 55.0349 39.8035 55.0349 40.3425C55.0349 40.5157 54.9578 40.6697 54.8038 40.8045C54.6497 40.9392 54.4571 41.0451 54.226 41.1221C53.9949 41.1991 53.7541 41.2569 53.5037 41.2954C53.2533 41.3339 53.0415 41.3531 52.8682 41.3531C52.6948 41.3531 52.483 41.3339 52.2326 41.2954C51.9822 41.2569 51.7415 41.1991 51.5103 41.1221C51.2792 41.0451 51.0866 40.9392 50.9325 40.8045C50.7785 40.6697 50.7014 40.5157 50.7014 40.3425C50.7014 39.9575 50.7014 39.5725 50.7014 39.1875C50.7207 38.7832 50.7303 38.3982 50.7303 38.0324C50.7496 37.6474 50.7688 37.3009 50.7881 36.9929C50.8074 36.6656 50.817 36.3865 50.817 36.1555C50.817 35.7705 50.634 35.5972 50.2681 35.6357C50.0177 35.655 49.6903 35.6742 49.2858 35.6935C48.9006 35.7127 48.4577 35.7224 47.9569 35.7224C47.4562 35.7224 47.0035 35.7127 46.5991 35.6935C46.2139 35.6742 45.8961 35.655 45.6457 35.6357C45.2798 35.5972 45.0968 35.7705 45.0968 36.1555C45.0968 36.3865 45.1065 36.6656 45.1257 36.9929C45.145 37.3009 45.1546 37.6474 45.1546 38.0324C45.1739 38.3982 45.1835 38.7832 45.1835 39.1875C45.2028 39.5725 45.2124 39.9575 45.2124 40.3425C45.2124 40.5157 45.1353 40.6697 44.9813 40.8045C44.8272 40.9392 44.6346 41.0451 44.4035 41.1221C44.1724 41.1991 43.9316 41.2569 43.6812 41.2954C43.4309 41.3339 43.219 41.3531 43.0457 41.3531C42.8723 41.3531 42.6605 41.3339 42.4101 41.2954C42.1597 41.2569 41.919 41.1991 41.6878 41.1221C41.4567 41.0451 41.2641 40.9392 41.11 40.8045C40.956 40.6697 40.8789 40.5157 40.8789 40.3425C40.8789 39.8035 40.8886 39.303 40.9078 38.8409C40.9271 38.3597 40.9367 37.8688 40.9367 37.3683C40.956 36.8678 40.9752 36.3384 40.9945 35.7801C41.0137 35.2026 41.0234 34.5577 41.0234 33.8454C41.0234 33.1139 41.0137 32.469 40.9945 31.9108C40.9752 31.3525 40.956 30.8328 40.9367 30.3515C40.9367 29.851 40.9271 29.3601 40.9078 28.8788C40.8886 28.3976 40.8789 27.8874 40.8789 27.3484Z" fill="#2C7429"/>
<path d="M60.6639 26.3378C60.8372 26.3378 61.0491 26.357 61.2994 26.3955C61.5498 26.434 61.7906 26.4918 62.0217 26.5688C62.2528 26.6458 62.4454 26.7517 62.5995 26.8864C62.7536 27.0212 62.8306 27.1752 62.8306 27.3484C62.8306 27.7334 62.821 28.1281 62.8017 28.5323C62.8017 28.9173 62.7921 29.3023 62.7728 29.6873C62.7728 30.0531 62.7632 30.3996 62.7439 30.7269C62.7247 31.0349 62.715 31.3044 62.715 31.5354C62.715 31.9204 62.898 32.0937 63.2639 32.0552C63.4758 32.0359 63.7358 32.0263 64.044 32.0263C64.3521 32.007 64.6699 31.9878 64.9973 31.9685C65.3633 31.9685 65.5751 31.776 65.6329 31.391C65.7292 30.7943 65.9699 30.1782 66.3551 29.543C66.7596 28.9077 67.2796 28.3302 67.9152 27.8104C68.5508 27.2907 69.3019 26.8672 70.1686 26.5399C71.0545 26.2126 72.0271 26.049 73.0864 26.049C74.242 26.049 75.2917 26.2415 76.2354 26.6265C77.1984 26.9923 78.0266 27.5217 78.7199 28.2147C79.4133 28.9077 79.9429 29.7355 80.3089 30.698C80.6941 31.6413 80.8867 32.6904 80.8867 33.8454C80.8867 35.0005 80.6941 36.0593 80.3089 37.0218C79.9429 37.965 79.4133 38.7832 78.7199 39.4762C78.0266 40.1692 77.1984 40.6986 76.2354 41.0644C75.2917 41.4494 74.242 41.6419 73.0864 41.6419C72.0271 41.6419 71.0545 41.4783 70.1686 41.151C69.3019 40.8237 68.5508 40.4002 67.9152 39.8805C67.2796 39.3607 66.7596 38.7832 66.3551 38.1479C65.9699 37.5127 65.7292 36.8966 65.6329 36.2999C65.5751 35.9149 65.3633 35.7224 64.9973 35.7224C64.6699 35.7031 64.3521 35.6935 64.044 35.6935C63.7358 35.6742 63.4758 35.655 63.2639 35.6357C62.898 35.5972 62.715 35.7705 62.715 36.1555C62.715 36.3865 62.7247 36.6656 62.7439 36.9929C62.7632 37.3009 62.7728 37.6474 62.7728 38.0324C62.7921 38.3982 62.8017 38.7832 62.8017 39.1875C62.821 39.5725 62.8306 39.9575 62.8306 40.3425C62.8306 40.5157 62.7536 40.6697 62.5995 40.8045C62.4454 40.9392 62.2528 41.0451 62.0217 41.1221C61.7906 41.1991 61.5498 41.2569 61.2994 41.2954C61.0491 41.3339 60.8372 41.3531 60.6639 41.3531C60.4905 41.3531 60.2787 41.3339 60.0283 41.2954C59.7779 41.2569 59.5372 41.1991 59.306 41.1221C59.0749 41.0451 58.8823 40.9392 58.7282 40.8045C58.5742 40.6697 58.4971 40.5157 58.4971 40.3425C58.4971 40.1692 58.5068 39.9382 58.526 39.6495C58.5645 39.3415 58.6031 38.9468 58.6416 38.4656C58.6801 37.965 58.709 37.3394 58.7282 36.5886C58.7668 35.8379 58.786 34.9235 58.786 33.8454C58.786 32.7674 58.7668 31.853 58.7282 31.1023C58.709 30.3515 58.6801 29.7355 58.6416 29.2542C58.6031 28.7537 58.5645 28.3591 58.526 28.0703C58.5068 27.7623 58.4971 27.5217 58.4971 27.3484C58.4971 27.1752 58.5742 27.0212 58.7282 26.8864C58.8823 26.7517 59.0749 26.6458 59.306 26.5688C59.5372 26.4918 59.7779 26.434 60.0283 26.3955C60.2787 26.357 60.4905 26.3378 60.6639 26.3378ZM73.0864 38.1768C74.3961 38.1768 75.3976 37.8592 76.091 37.2239C76.7843 36.5694 77.131 35.4432 77.131 33.8454C77.131 32.2477 76.7843 31.1311 76.091 30.4959C75.3976 29.8414 74.3961 29.5141 73.0864 29.5141C71.7768 29.5141 70.7753 29.8414 70.0819 30.4959C69.3885 31.1311 69.0419 32.2477 69.0419 33.8454C69.0419 35.4432 69.3885 36.5694 70.0819 37.2239C70.7753 37.8592 71.7768 38.1768 73.0864 38.1768Z" fill="#2C7429"/>
<path fill-rule="evenodd" clip-rule="evenodd" d="M88.0469 30.6384C89.0478 30.2784 90.1511 30.7976 90.5112 31.798C91.9621 35.8286 98.1793 40.1499 109.163 40.1499C120.179 40.1499 126.387 35.9387 127.805 31.8228C128.152 30.8176 129.248 30.2834 130.253 30.6297C131.259 30.9759 131.793 32.0715 131.447 33.0767C129.212 39.5628 120.749 44 109.163 44C97.5423 44 89.16 39.4168 86.8867 33.1015C86.5266 32.1011 87.0461 30.9983 88.0469 30.6384Z" fill="#F4A100"/>
<path fill-rule="evenodd" clip-rule="evenodd" d="M105.467 31.2773C104.426 31.4965 103.405 30.8308 103.186 29.7904C102.925 28.5544 102.533 27.6889 102.099 27.1685C101.72 26.7125 101.308 26.506 100.737 26.506C100.189 26.506 99.7668 26.7138 99.3692 27.1949C98.9253 27.7323 98.5345 28.604 98.289 29.7852C98.0726 30.8261 97.053 31.4947 96.0115 31.2784C94.9701 31.0621 94.3012 30.0429 94.5176 29.002C94.8364 27.4682 95.4158 25.9336 96.3991 24.7434C97.4289 23.497 98.8917 22.6559 100.737 22.6559C102.558 22.6559 104.019 23.4554 105.06 24.7054C106.047 25.8911 106.625 27.4319 106.955 28.9968C107.174 30.0371 106.508 31.0581 105.467 31.2773Z" fill="#F4A100"/>
<path fill-rule="evenodd" clip-rule="evenodd" d="M122.32 31.2773C121.279 31.4965 120.258 30.8308 120.039 29.7904C119.778 28.5544 119.386 27.6889 118.952 27.1685C118.573 26.7125 118.161 26.506 117.59 26.506C117.042 26.506 116.62 26.7138 116.222 27.1949C115.778 27.7323 115.388 28.604 115.142 29.7852C114.926 30.8261 113.906 31.4947 112.865 31.2784C111.823 31.0621 111.154 30.0429 111.371 29.002C111.689 27.4682 112.269 25.9336 113.252 24.7434C114.282 23.497 115.745 22.6559 117.59 22.6559C119.411 22.6559 120.872 23.4554 121.913 24.7054C122.9 25.8911 123.478 27.4319 123.808 28.9968C124.027 30.0371 123.361 31.0581 122.32 31.2773Z" fill="#F4A100"/>
</svg>
