<svg width="40" height="30" viewBox="0 0 40 30" fill="none" xmlns="http://www.w3.org/2000/svg">
<path d="M37.5 25C37.5 26.3807 36.3807 27.5 35 27.5H5C3.61929 27.5 2.5 26.3807 2.5 25V10C2.5 8.61929 3.61929 7.5 5 7.5H7.92893C9.91806 7.5 11.8257 6.70982 13.2322 5.3033L15.3033 3.23223C15.7721 2.76339 16.408 2.5 17.0711 2.5H22.9289C23.592 2.5 24.2279 2.76339 24.6967 3.23223L26.7678 5.3033C28.1743 6.70983 30.0819 7.5 32.0711 7.5H35C36.3807 7.5 37.5 8.61929 37.5 10V25ZM5 5C2.23858 5 0 7.23858 0 10V25C0 27.7614 2.23858 30 5 30H35C37.7614 30 40 27.7614 40 25V10C40 7.23858 37.7614 5 35 5H32.0711C30.745 5 29.4732 4.47322 28.5355 3.53554L26.4645 1.46447C25.5268 0.526784 24.255 0 22.9289 0H17.0711C15.745 0 14.4732 0.526783 13.5355 1.46446L11.4645 3.53553C10.5268 4.47322 9.25501 5 7.92893 5H5Z" fill="#919191"/>
<path d="M20 22.5C16.5482 22.5 13.75 19.7018 13.75 16.25C13.75 12.7982 16.5482 10 20 10C23.4518 10 26.25 12.7982 26.25 16.25C26.25 19.7018 23.4518 22.5 20 22.5ZM20 25C24.8325 25 28.75 21.0825 28.75 16.25C28.75 11.4175 24.8325 7.5 20 7.5C15.1675 7.5 11.25 11.4175 11.25 16.25C11.25 21.0825 15.1675 25 20 25Z" fill="#919191"/>
<path d="M7.5 11.25C7.5 11.9404 6.94036 12.5 6.25 12.5C5.55964 12.5 5 11.9404 5 11.25C5 10.5596 5.55964 10 6.25 10C6.94036 10 7.5 10.5596 7.5 11.25Z" fill="#919191"/>
</svg>
