<svg width="24" height="21" viewBox="0 0 24 21" fill="none" xmlns="http://www.w3.org/2000/svg">
<path d="M8.25 4.5V1.5C8.25 1.30109 8.32902 1.11032 8.46967 0.96967C8.61032 0.829018 8.80109 0.75 9 0.75C9.19892 0.75 9.38968 0.829018 9.53033 0.96967C9.67099 1.11032 9.75 1.30109 9.75 1.5V4.5C9.75 4.69891 9.67099 4.88968 9.53033 5.03033C9.38968 5.17098 9.19892 5.25 9 5.25C8.80109 5.25 8.61032 5.17098 8.46967 5.03033C8.32902 4.88968 8.25 4.69891 8.25 4.5ZM12 5.25C12.1989 5.25 12.3897 5.17098 12.5303 5.03033C12.671 4.88968 12.75 4.69891 12.75 4.5V1.5C12.75 1.30109 12.671 1.11032 12.5303 0.96967C12.3897 0.829018 12.1989 0.75 12 0.75C11.8011 0.75 11.6103 0.829018 11.4697 0.96967C11.329 1.11032 11.25 1.30109 11.25 1.5V4.5C11.25 4.69891 11.329 4.88968 11.4697 5.03033C11.6103 5.17098 11.8011 5.25 12 5.25ZM15 5.25C15.1989 5.25 15.3897 5.17098 15.5303 5.03033C15.671 4.88968 15.75 4.69891 15.75 4.5V1.5C15.75 1.30109 15.671 1.11032 15.5303 0.96967C15.3897 0.829018 15.1989 0.75 15 0.75C14.8011 0.75 14.6103 0.829018 14.4697 0.96967C14.329 1.11032 14.25 1.30109 14.25 1.5V4.5C14.25 4.69891 14.329 4.88968 14.4697 5.03033C14.6103 5.17098 14.8011 5.25 15 5.25ZM23.7 9.6L21 11.625V17.25C21 18.0456 20.6839 18.8087 20.1213 19.3713C19.5587 19.9339 18.7957 20.25 18 20.25H6C5.20435 20.25 4.44129 19.9339 3.87868 19.3713C3.31607 18.8087 3 18.0456 3 17.25V11.625L0.300003 9.6C0.140873 9.48065 0.0356714 9.30298 0.00754094 9.10607C-0.0205895 8.90915 0.0306556 8.70913 0.150003 8.55C0.26935 8.39087 0.447024 8.28567 0.643937 8.25754C0.84085 8.22941 1.04087 8.28065 1.2 8.4L3 9.75V8.25C3 7.85218 3.15804 7.47064 3.43934 7.18934C3.72065 6.90804 4.10218 6.75 4.5 6.75H19.5C19.8978 6.75 20.2794 6.90804 20.5607 7.18934C20.842 7.47064 21 7.85218 21 8.25V9.75L22.8 8.4C22.9591 8.28065 23.1592 8.22941 23.3561 8.25754C23.553 8.28567 23.7307 8.39087 23.85 8.55C23.9693 8.70913 24.0206 8.90915 23.9925 9.10607C23.9643 9.30298 23.8591 9.48065 23.7 9.6ZM19.5 8.25H4.5V17.25C4.5 17.6478 4.65804 18.0294 4.93934 18.3107C5.22065 18.592 5.60218 18.75 6 18.75H18C18.3978 18.75 18.7794 18.592 19.0607 18.3107C19.342 18.0294 19.5 17.6478 19.5 17.25V8.25Z" fill="#919191"/>
</svg>
